<svg width="710" height="499" viewBox="0 0 710 499" fill="none" xmlns="http://www.w3.org/2000/svg">
<path d="M90.7103 252.086C92.1832 257.675 91.9323 262.472 89.9575 266.476C88.0801 270.34 85.1809 273.593 81.2599 276.234C77.478 278.972 73.0601 281.214 68.0061 282.958C63.0704 284.681 58.2007 286.088 53.3972 287.179C48.7118 288.249 44.4886 289.176 40.7278 289.961C37.0852 290.725 34.666 291.517 33.4702 292.337C30.7599 287.332 29.0783 282.633 28.4254 278.239C28.092 276.348 28.0054 274.475 28.1656 272.619C28.3257 270.763 28.8125 269.032 29.6261 267.426C30.5578 265.8 31.8857 264.347 33.6098 263.068C35.334 261.79 37.6524 260.772 40.5652 260.014C48.066 258.326 54.1973 256.819 58.9592 255.491C63.7003 254.046 67.2387 252.691 69.5746 251.426C72.0286 250.141 73.3878 248.865 73.6521 247.6C74.0138 246.196 73.5656 244.691 72.3077 243.085C70.0906 240.186 67.2061 237.648 63.6542 235.472C60.1023 233.296 56.3141 231.161 52.2895 229.068C48.265 226.975 44.1709 224.834 40.0073 222.643C35.9619 220.432 32.2884 217.912 28.9869 215.082C25.6645 212.134 22.9504 208.836 20.8447 205.186C18.7181 201.418 17.5717 196.99 17.4056 191.901C17.3368 186.674 18.4151 180.696 20.6405 173.967C22.9632 167.099 26.9232 159.151 32.5203 150.122C33.1043 149.288 33.883 148.176 34.8564 146.785C35.8298 145.395 36.9701 143.915 38.2771 142.344C40.5228 139.876 43.1751 137.642 46.234 135.64C49.3902 133.5 52.8452 132.708 56.5989 133.264C62.5839 134.037 66.671 136.484 68.8601 140.607C71.1674 144.709 72.1434 149.898 71.788 156.175C71.5999 159.254 71.4638 162.629 71.3799 166.3C71.3933 169.831 71.4554 173.293 71.5662 176.685C71.6769 180.077 71.8642 183.212 72.1279 186.09C72.3708 188.85 72.6173 190.939 72.8674 192.357L65.5995 193.639C65.2107 190.052 64.8706 186.395 64.5792 182.669C64.2737 179.555 63.9961 176.253 63.7464 172.763C63.4758 169.156 63.2468 165.784 63.0596 162.649C63.0111 161.683 62.7504 161.241 62.2777 161.325C61.7842 161.29 61.1759 161.641 60.4528 162.378C59.7298 163.114 58.8712 164.119 57.8769 165.391C56.8827 166.663 55.8989 167.994 54.9255 169.384C48.7931 178.142 45.2434 185.652 44.2763 191.915C43.4065 198.039 44.1078 203.399 46.3803 207.994C48.6528 212.589 51.9854 216.632 56.3782 220.122C60.8892 223.592 65.4975 226.922 70.2032 230.113C74.9089 233.305 79.2113 236.628 83.1106 240.084C87.0098 243.539 89.5431 247.54 90.7103 252.086ZM187.838 197.856C186.162 206.316 184.2 213.851 181.954 220.461C180.995 223.311 179.906 226.123 178.689 228.897C177.452 231.552 176.103 233.922 174.643 236.007C173.183 238.092 171.531 239.785 169.689 241.085C167.944 242.245 166.095 242.815 164.142 242.794C161.458 242.78 159.078 241.372 157 238.57C155.04 235.747 153.212 232.292 151.516 228.205C149.821 224.117 148.261 219.762 146.836 215.139C145.391 210.398 143.949 206.022 142.511 202.01C141.073 197.999 139.533 194.798 137.893 192.406C136.35 189.876 134.574 188.788 132.565 189.142C130.556 189.496 129.381 191.47 129.04 195.064C128.678 198.54 128.532 202.891 128.6 208.119C128.787 213.325 128.988 218.956 129.203 225.011C129.417 231.065 129.027 236.8 128.033 242.215C127.135 247.491 125.442 252.055 122.953 255.905C120.464 259.756 116.609 262.081 111.388 262.88C107.864 263.623 104.784 262.399 102.15 259.208C99.516 256.017 97.1462 251.561 95.0407 245.839C93.0534 240.097 91.3234 233.396 89.8508 225.735C88.4963 218.054 87.267 210.045 86.1629 201.711C85.0588 193.376 84.0833 185.079 83.2364 176.821C82.4868 168.423 81.7336 160.697 80.9769 153.641C80.2202 146.585 79.4529 140.506 78.6751 135.403C78.0154 130.28 77.2721 126.756 76.4451 124.83C81.8327 122.905 86.7579 122.159 91.2207 122.59C93.0767 122.75 94.9257 123.216 96.7677 123.988C98.7071 124.621 100.424 125.72 101.918 127.284C103.51 128.709 104.83 130.67 105.88 133.165C107.026 135.522 107.805 138.553 108.214 142.258C108.547 146.221 109.005 150.892 109.589 156.272C110.151 161.535 110.776 167.152 111.463 173.123C112.13 178.976 112.827 185.007 113.556 191.214C114.383 197.283 115.237 203.164 116.119 208.857C116.259 204.812 116.586 200.794 117.101 196.804C117.595 192.695 118.35 189.029 119.365 185.803C120.499 182.557 121.914 179.871 123.61 177.744C125.404 175.478 127.601 174.116 130.201 173.657C133.628 173.053 136.558 174.12 138.99 176.86C141.52 179.46 143.723 182.971 145.6 187.392C147.594 191.793 149.307 196.669 150.738 202.022C152.287 207.354 153.715 212.342 155.021 216.985C156.446 221.608 157.874 225.56 159.305 228.842C160.716 232.005 162.349 233.666 164.205 233.827C165.332 233.994 166.482 233.608 167.657 232.67C168.929 231.592 170.149 230.22 171.317 228.551C172.486 226.883 173.612 224.979 174.697 222.838C175.879 220.558 176.932 218.24 177.857 215.883C180.075 210.496 182.217 204.331 184.283 197.387L187.838 197.856ZM278.232 174.058C276.527 185.813 273.846 196.521 270.188 206.183C268.61 210.36 266.715 214.472 264.504 218.517C262.411 222.542 259.89 226.215 256.942 229.538C254.113 232.839 250.845 235.731 247.14 238.212C243.532 240.554 239.482 242.121 234.991 242.913C231.446 243.538 228.454 243.152 226.014 241.754C223.692 240.336 221.75 238.302 220.186 235.653C218.72 232.866 217.524 229.543 216.6 225.685C215.795 221.806 215.135 217.718 214.621 213.422C213.335 215.111 211.93 216.821 210.408 218.552C208.885 220.282 207.144 221.808 205.183 223.128C203.223 224.449 200.984 225.575 198.468 226.506C195.93 227.319 193.143 227.749 190.105 227.798C185.35 227.783 181.767 226.465 179.355 223.844C176.922 221.105 175.55 217.813 175.238 213.969C174.905 210.007 175.527 205.937 177.106 201.759C178.782 197.443 181.361 193.759 184.844 190.708C187.368 188.435 189.975 186.635 192.665 185.307C195.356 183.98 197.921 182.979 200.361 182.305C202.898 181.493 205.192 181.027 207.243 180.909C209.391 180.652 211.136 180.527 212.478 180.535C212.297 178.129 211.971 175.933 211.498 173.944C211.123 171.817 210.633 170.076 210.029 168.72C215.416 166.795 220.342 166.049 224.804 166.481C226.66 166.641 228.509 167.107 230.351 167.879C232.291 168.511 234.008 169.61 235.502 171.174C237.114 172.718 238.445 174.737 239.495 177.233C240.641 179.59 241.419 182.621 241.829 186.326C242.53 193.757 243.37 200.25 244.35 205.804C245.308 211.24 246.413 215.432 247.664 218.379C249.033 221.306 250.576 222.801 252.293 222.864C253.989 222.808 255.974 220.935 258.248 217.244C261.474 212.045 263.991 206.971 265.799 202.022C267.704 196.934 269.151 192.353 270.138 188.279C271.279 183.692 272.027 179.295 272.382 175.09L278.232 174.058ZM193.549 206.902C193.993 210.114 195.008 212.067 196.593 212.763C198.157 213.34 199.95 213.145 201.973 212.179C203.975 211.095 206.002 209.458 208.053 207.269C210.201 204.941 212.092 202.536 213.726 200.054C213.65 198.24 213.525 196.495 213.351 194.82C213.296 193.124 213.241 191.428 213.185 189.731C211.885 189.961 210.015 190.412 207.575 191.086C205.253 191.739 202.935 192.757 200.62 194.14C198.402 195.384 196.563 197.049 195.103 199.134C193.643 201.219 193.125 203.809 193.549 206.902ZM341.595 176.228C335.819 174.566 330.394 173.512 325.319 173.066C320.856 172.635 316.321 172.825 311.712 173.638C307.221 174.43 303.63 176.525 300.94 179.924C304.387 183.581 307.963 187.276 311.668 191.01C315.469 194.604 318.976 198.25 322.187 201.949C325.377 205.529 328.202 209.113 330.663 212.701C333.102 216.17 334.801 219.587 335.76 222.951C336.719 226.316 336.739 229.541 335.821 232.628C335.042 235.811 333.009 238.79 329.72 241.563C328.761 242.341 327.565 243.161 326.133 244.023C324.722 245.003 323.112 245.896 321.305 246.702C319.497 247.508 317.54 248.158 315.434 248.651C313.467 249.242 311.378 249.488 309.167 249.391L308.99 249.422C308.635 249.484 308.389 249.467 308.25 249.37C307.638 249.356 306.957 249.293 306.206 249.182C305.476 249.189 304.607 249.098 303.599 248.91C301.861 248.729 299.616 248.089 296.864 246.991C295.675 246.469 294.396 245.781 293.027 244.926C291.678 244.189 290.358 243.264 289.065 242.151C286.319 239.711 284.102 236.812 282.414 233.454C282.372 233.218 282.271 232.992 282.111 232.776C282.07 232.54 282.028 232.304 281.986 232.067L281.746 231.744L281.684 231.39L281.382 230.712L281.111 230.211L280.986 229.502C280.805 229.168 280.662 228.706 280.558 228.115C279.891 226.405 279.38 224.546 279.026 222.537C278.672 220.528 278.387 218.567 278.172 216.656C278.054 214.605 278.114 212.523 278.35 210.41C278.768 206.559 279.648 202.565 280.99 198.429C281.087 198.29 281.136 198.221 281.136 198.221C281.115 198.103 281.153 197.974 281.251 197.835C278.783 195.589 276.333 193.097 273.901 190.358C269.994 186.173 267.117 182.293 265.269 178.72C263.42 175.147 262.294 171.872 261.892 168.897C261.586 165.783 261.826 162.999 262.612 160.545C263.398 158.091 264.472 155.891 265.835 153.945C269.068 149.476 274.084 145.789 280.883 142.884C279.805 147.826 280.84 153.005 283.988 158.421C287.136 163.837 291.213 169.332 296.217 174.908C298.469 173.17 300.784 171.787 303.162 170.759C305.539 169.73 307.969 168.997 310.451 168.56C312.932 168.122 315.397 167.931 317.844 167.987C320.27 167.925 322.598 168.002 324.83 168.218C329.925 168.781 335.027 170.075 340.136 172.099L341.595 176.228ZM294.978 235.26C295.833 235.962 296.726 236.536 297.657 236.981C298.589 237.426 299.52 237.871 300.452 238.316L301.609 238.66C303.368 238.959 304.887 238.935 306.166 238.588C307.563 238.219 308.38 236.979 308.617 234.866C308.985 232.12 308.645 229.499 307.596 227.003C306.665 224.487 305.191 222.005 303.176 219.558C301.258 216.972 298.915 214.399 296.149 211.841C293.501 209.261 290.644 206.536 287.579 203.665C286.988 205.84 286.626 208.28 286.494 210.984C286.389 214.537 286.666 217.839 287.326 220.89C287.57 221.578 287.764 222.336 287.91 223.163C288.153 223.852 288.407 224.599 288.671 225.405C289.032 226.073 289.345 226.81 289.609 227.616C289.852 228.304 290.144 228.923 290.485 229.472C291.068 230.71 291.739 231.749 292.497 232.59C293.275 233.55 294.102 234.44 294.978 235.26ZM428.635 155.397C426.959 163.857 424.998 171.392 422.751 178.002C421.792 180.852 420.703 183.664 419.486 186.438C418.249 189.093 416.9 191.463 415.44 193.548C413.98 195.633 412.328 197.326 410.486 198.626C408.741 199.786 406.892 200.356 404.939 200.335C402.255 200.321 399.875 198.913 397.797 196.111C395.837 193.288 394.009 189.833 392.313 185.746C390.618 181.658 389.058 177.303 387.633 172.68C386.188 167.939 384.746 163.563 383.308 159.551C381.87 155.54 380.33 152.339 378.69 149.947C377.147 147.417 375.371 146.329 373.362 146.683C371.353 147.037 370.178 149.011 369.837 152.605C369.475 156.081 369.329 160.432 369.397 165.66C369.584 170.866 369.785 176.497 370 182.552C370.215 188.606 369.824 194.341 368.83 199.756C367.932 205.032 366.239 209.596 363.75 213.446C361.261 217.297 357.406 219.622 352.185 220.421C348.661 221.164 345.581 219.94 342.947 216.749C340.313 213.558 337.943 209.102 335.838 203.38C333.85 197.638 332.12 190.937 330.648 183.276C329.293 175.595 328.064 167.586 326.96 159.252C325.856 150.917 324.88 142.62 324.033 134.362C323.284 125.964 322.531 118.238 321.774 111.182C321.017 104.126 320.25 98.0469 319.472 92.9445C318.812 87.8212 318.069 84.2967 317.242 82.371C322.63 80.4462 327.555 79.6997 332.018 80.1313C333.874 80.2914 335.723 80.7574 337.565 81.5293C339.504 82.1621 341.221 83.2607 342.715 84.825C344.307 86.2502 345.627 88.2107 346.677 90.7064C347.823 93.0631 348.602 96.094 349.011 99.7992C349.344 103.762 349.802 108.433 350.386 113.813C350.948 119.076 351.573 124.693 352.26 130.664C352.927 136.517 353.624 142.548 354.353 148.755C355.18 154.824 356.034 160.705 356.916 166.398C357.056 162.353 357.383 158.335 357.898 154.345C358.392 150.236 359.147 146.57 360.162 143.344C361.296 140.098 362.711 137.412 364.407 135.285C366.201 133.019 368.398 131.657 370.998 131.198C374.425 130.594 377.355 131.661 379.787 134.401C382.317 137.001 384.52 140.512 386.397 144.933C388.391 149.333 390.104 154.21 391.535 159.563C393.084 164.895 394.512 169.883 395.819 174.526C397.243 179.149 398.671 183.101 400.102 186.383C401.513 189.546 403.146 191.207 405.002 191.368C406.129 191.535 407.279 191.149 408.454 190.211C409.726 189.133 410.946 187.761 412.115 186.092C413.283 184.424 414.409 182.52 415.494 180.379C416.676 178.099 417.729 175.781 418.654 173.424C420.872 168.037 423.014 161.872 425.08 154.928L428.635 155.397ZM547.892 126.327C547.537 130.532 546.428 134.262 544.564 137.515C542.972 140.233 540.49 142.742 537.118 145.042C533.746 147.343 529.051 148.353 523.031 148.074C523.093 150.5 523.086 152.878 523.009 155.207C522.911 157.417 522.695 159.648 522.361 161.901C522.027 164.153 521.624 166.356 521.151 168.511C520.657 170.548 520.035 172.546 519.284 174.507C517.879 178.288 516.154 181.638 514.11 184.558C513.332 185.67 512.543 186.723 511.743 187.717C511.062 188.69 510.3 189.555 509.459 190.313C506.567 193.26 502.931 195.79 498.551 197.902C495.034 199.375 491.829 199.514 488.937 198.318C486.185 197.219 483.641 195.231 481.306 192.353C478.97 189.474 476.896 186.002 475.082 181.935C473.247 177.75 471.58 173.475 470.079 169.109C469.321 172.411 468.257 175.706 466.887 178.993C465.635 182.26 463.928 185.364 461.766 188.304C459.722 191.223 457.142 193.872 454.028 196.249C451.01 198.486 447.357 200.227 443.068 201.471C438.563 202.875 434.771 202.447 431.692 200.187C428.613 197.927 426.076 194.597 424.082 190.197C422.067 185.678 420.42 180.485 419.142 174.618C417.863 168.751 416.724 162.981 415.724 157.308C414.724 151.636 413.678 146.398 412.587 141.594C411.615 136.77 410.368 133.151 408.846 130.739C413.99 128.126 418.801 126.73 423.277 126.549C425.21 126.452 427.135 126.661 429.054 127.176C431.091 127.67 432.964 128.619 434.674 130.023C436.481 131.289 438.076 133.079 439.459 135.394C440.842 137.709 441.975 140.677 442.857 144.299C444.504 151.564 445.907 158.14 447.067 164.028C448.206 169.798 449.293 174.236 450.329 177.344C451.482 180.43 452.709 181.859 454.009 181.63C455.406 181.261 457.148 178.7 459.234 173.946C461.146 169.587 462.52 165.629 463.354 162.07C464.286 158.372 464.937 155.15 465.305 152.404C464.548 149.491 463.853 146.933 463.221 144.729C462.568 142.408 461.988 140.499 461.481 139.005C465.735 136.183 469.823 134.487 473.744 133.918C475.398 133.626 477.105 133.63 478.863 133.929C480.719 134.089 482.471 134.694 484.118 135.744C485.745 136.676 487.277 138.112 488.716 140.051C490.155 141.991 491.451 144.504 492.604 147.591C494.675 153.805 496.711 159.478 498.712 164.608C500.693 169.621 502.604 173.549 504.446 176.392C505.753 174.821 507.015 172.649 508.232 169.875C509.567 167.081 510.631 163.786 511.424 159.991C511.723 158.232 512.001 156.356 512.259 154.36C512.495 152.247 512.614 150.155 512.614 148.083C512.69 147.826 512.708 147.579 512.666 147.343C512.625 147.107 512.642 146.86 512.718 146.603C511.69 146.297 510.602 146.001 509.455 145.716C508.308 145.431 507.21 145.076 506.16 144.652C503.706 143.866 501.586 142.9 499.8 141.752C498.709 141.092 497.666 140.362 496.672 139.562C495.775 138.624 494.917 137.557 494.097 136.361C493.277 135.165 492.603 133.761 492.075 132.148C491.727 130.869 491.575 129.312 491.617 127.476C491.999 124.119 493.394 121.314 495.799 119.062C498.142 116.456 500.999 115.038 504.371 114.809C506.143 114.497 507.881 114.678 509.584 115.352C510.474 115.561 511.266 115.909 511.961 116.395C512.775 116.861 513.529 117.337 514.224 117.824C514.94 118.429 515.538 119.055 516.017 119.701C516.476 120.23 516.945 120.817 517.425 121.464C517.786 122.131 518.088 122.809 518.331 123.497C518.693 124.164 519.054 124.832 519.416 125.499C520.02 126.855 520.437 128.183 520.666 129.483C520.868 129.934 521.052 130.633 521.219 131.578L521.531 133.351C522.115 136.66 522.51 139.941 522.718 143.194C526.625 143.237 530.063 142.692 533.031 141.559C535.645 140.489 538.026 138.789 540.174 136.461C542.441 134.112 543.769 130.588 544.159 125.888L547.892 126.327ZM511.72 131.608C511.615 131.018 511.532 130.545 511.469 130.19C511.386 129.718 511.233 129.196 511.011 128.626C510.608 127.722 510.226 126.937 509.864 126.269C509.482 125.484 509.062 124.827 508.603 124.299C507.449 123.284 506.26 122.762 505.037 122.734C503.577 122.748 502.222 123.352 500.97 124.548C499.795 125.486 499.048 126.775 498.728 128.416C498.623 129.897 498.932 131.304 499.655 132.639C500.357 133.856 501.563 135.166 503.273 136.571C504.086 137.036 504.899 137.502 505.713 137.968C506.526 138.434 507.398 138.889 508.33 139.334C508.983 139.585 509.706 139.884 510.498 140.231C511.27 140.461 511.982 140.701 512.636 140.951C512.566 139.867 512.507 138.841 512.459 137.875C512.39 136.791 512.261 135.717 512.074 134.653C512.15 134.396 512.168 134.149 512.126 133.913C512.063 133.558 512.011 133.263 511.97 133.027L511.72 131.608ZM639.514 110.354C637.809 122.109 635.128 132.817 631.47 142.479C629.892 146.657 627.997 150.768 625.786 154.814C623.693 158.838 621.172 162.512 618.225 165.834C615.395 169.136 612.127 172.027 608.422 174.508C604.814 176.85 600.764 178.417 596.274 179.209C592.728 179.834 589.736 179.448 587.296 178.05C584.974 176.632 583.032 174.598 581.468 171.95C580.002 169.162 578.807 165.839 577.883 161.981C577.077 158.102 576.417 154.014 575.903 149.718C574.617 151.407 573.212 153.117 571.69 154.848C570.167 156.578 568.426 158.104 566.465 159.425C564.505 160.745 562.266 161.871 559.75 162.802C557.212 163.615 554.425 164.046 551.387 164.094C546.632 164.079 543.049 162.761 540.637 160.14C538.204 157.401 536.832 154.11 536.52 150.265C536.187 146.303 536.809 142.233 538.388 138.055C540.064 133.739 542.643 130.055 546.126 127.004C548.65 124.731 551.257 122.931 553.947 121.604C556.638 120.276 559.203 119.276 561.643 118.602C564.18 117.789 566.475 117.323 568.525 117.205C570.673 116.949 572.418 116.824 573.76 116.831C573.579 114.426 573.253 112.229 572.78 110.241C572.405 108.114 571.916 106.372 571.311 105.016C576.699 103.092 581.624 102.345 586.086 102.777C587.942 102.937 589.791 103.403 591.634 104.175C593.573 104.808 595.29 105.906 596.784 107.47C598.397 109.014 599.727 111.033 600.777 113.529C601.923 115.886 602.702 118.917 603.111 122.622C603.812 130.053 604.652 136.546 605.632 142.1C606.59 147.536 607.695 151.728 608.946 154.676C610.315 157.602 611.858 159.097 613.575 159.16C615.271 159.105 617.256 157.231 619.53 153.541C622.756 148.341 625.273 143.267 627.081 138.318C628.986 133.23 630.433 128.649 631.421 124.576C632.561 119.988 633.309 115.591 633.664 111.386L639.514 110.354ZM554.831 143.198C555.275 146.41 556.29 148.363 557.875 149.059C559.439 149.636 561.232 149.442 563.255 148.476C565.257 147.391 567.284 145.755 569.335 143.565C571.483 141.237 573.374 138.832 575.008 136.351C574.932 134.536 574.807 132.791 574.634 131.116C574.578 129.42 574.523 127.724 574.467 126.028C573.167 126.257 571.297 126.708 568.857 127.382C566.536 128.035 564.217 129.053 561.902 130.437C559.684 131.68 557.846 133.345 556.385 135.43C554.925 137.516 554.407 140.105 554.831 143.198ZM696.56 103.768C693.958 116.656 690.505 128.17 686.201 138.312C684.407 142.649 682.307 146.98 679.901 151.303C677.475 155.508 674.739 159.342 671.693 162.803C668.746 166.126 665.398 168.909 661.651 171.154C658.043 173.496 654.021 174.875 649.586 175.292C646.611 175.695 643.928 174.645 641.537 172.142C639.146 169.639 636.932 166.069 634.896 161.432C632.978 156.774 631.22 151.296 629.623 144.998C628.143 138.679 626.778 131.974 625.527 124.884C624.277 117.793 623.114 110.504 622.037 103.018C621.058 95.3917 620.18 87.9918 619.402 80.8179C618.36 81.1236 617.366 81.3598 616.42 81.5265C615.475 81.6932 614.54 81.919 613.615 82.2039C612.67 82.3706 611.724 82.5373 610.779 82.704C609.834 82.8707 608.899 83.0965 607.974 83.3813L599.643 84.8504L597.161 85.288L596.452 85.413L594.951 80.0116L595.128 79.9803C595.365 79.9386 595.591 79.8379 595.806 79.678C596.042 79.6363 596.338 79.5842 596.692 79.5217C597.026 79.341 597.478 79.1395 598.048 78.9172C598.952 78.5141 600.102 78.1284 601.5 77.7602C602.876 77.2738 604.43 76.7561 606.161 76.2072C606.967 75.9432 607.833 75.6687 608.757 75.3838C609.682 75.099 610.606 74.8141 611.531 74.5292C612.435 74.1262 613.418 73.8309 614.482 73.6433C615.525 73.3376 616.567 73.0319 617.61 72.7262C617.826 72.5663 618.052 72.4655 618.288 72.4239C617.788 67.5161 617.271 62.8551 616.736 58.4409C616.202 54.0267 615.681 50.0365 615.174 46.4703C614.667 42.9042 614.136 39.8907 613.58 37.4298C613.142 34.9481 612.631 33.0885 612.048 31.8511C617.435 29.9263 622.361 29.1797 626.823 29.6113C628.679 29.7714 630.528 30.2374 632.37 31.0093C634.31 31.6422 636.027 32.7407 637.521 34.305C639.133 35.8484 640.464 37.868 641.514 40.3637C642.66 42.7204 643.438 45.7513 643.848 49.4565C644.105 51.6045 644.414 54.048 644.775 56.7869C645.115 59.4076 645.428 62.216 645.712 65.2121C646.54 65.0663 647.367 64.9204 648.194 64.7745C649 64.5105 649.817 64.3055 650.644 64.1597C651.569 63.8748 652.445 63.6594 653.272 63.5136C654.218 63.3469 655.163 63.1802 656.108 63.0134C657.054 62.8467 657.881 62.7009 658.59 62.5759C659.397 62.3118 660.154 62.1173 660.863 61.9923L664.586 61.3359L667.777 60.7732L669.1 66.206C668.982 66.2268 668.756 66.3276 668.422 66.5083C668.089 66.6889 667.352 67.0016 666.212 67.4464C665.19 67.8703 663.98 68.2663 662.583 68.6346C661.895 68.8778 661.147 69.1314 660.341 69.3954C659.653 69.6386 658.905 69.8923 658.099 70.1563C657.174 70.4412 656.25 70.7261 655.325 71.0109C654.401 71.2958 653.476 71.5807 652.552 71.8656C651.627 72.1505 650.643 72.4458 649.601 72.7515C648.676 73.0363 647.751 73.3212 646.827 73.6061C647.445 78.493 648.094 83.5572 648.775 88.7987C649.573 94.0193 650.382 99.299 651.202 104.638C652.577 112.438 653.89 119.883 655.14 126.973C656.37 133.946 657.707 139.802 659.152 144.544C660.577 149.166 662.272 152.218 664.239 153.699C666.325 155.159 668.831 154.169 671.758 150.729C672.967 149.297 674.184 147.559 675.408 145.516C676.729 143.333 677.96 140.984 679.1 138.467C680.338 135.812 681.506 133.108 682.605 130.355C683.683 127.485 684.712 124.683 685.692 121.952C687.862 115.598 690.018 108.821 692.16 101.62L696.56 103.768Z" fill="white"/>
<path d="M268.796 398.954C270.269 404.544 270.018 409.34 268.043 413.344C266.166 417.208 263.266 420.461 259.345 423.102C255.564 425.841 251.146 428.082 246.092 429.826C241.156 431.549 236.286 432.956 231.483 434.047C226.797 435.117 222.574 436.044 218.813 436.829C215.171 437.593 212.752 438.385 211.556 439.206C208.845 434.2 207.164 429.501 206.511 425.107C206.178 423.217 206.091 421.343 206.251 419.487C206.411 417.631 206.898 415.9 207.712 414.295C208.643 412.668 209.971 411.215 211.695 409.937C213.42 408.658 215.738 407.64 218.651 406.882C226.152 405.194 232.283 403.687 237.045 402.36C241.786 400.914 245.324 399.559 247.66 398.295C250.114 397.009 251.473 395.734 251.738 394.468C252.099 393.064 251.651 391.559 250.393 389.953C248.176 387.054 245.292 384.517 241.74 382.34C238.188 380.164 234.4 378.029 230.375 375.936C226.351 373.843 222.256 371.702 218.093 369.512C214.047 367.3 210.374 364.78 207.072 361.95C203.75 359.003 201.036 355.704 198.93 352.054C196.804 348.286 195.657 343.858 195.491 338.769C195.422 333.542 196.501 327.564 198.726 320.835C201.049 313.967 205.009 306.019 210.606 296.99C211.19 296.156 211.969 295.044 212.942 293.654C213.915 292.263 215.056 290.783 216.363 289.212C218.608 286.745 221.261 284.51 224.32 282.509C227.476 280.368 230.931 279.576 234.684 280.133C240.669 280.905 244.757 283.353 246.946 287.475C249.253 291.577 250.229 296.766 249.874 303.043C249.685 306.123 249.549 309.497 249.465 313.168C249.479 316.699 249.541 320.161 249.652 323.553C249.762 326.946 249.95 330.081 250.213 332.959C250.456 335.718 250.703 337.807 250.953 339.225L243.685 340.507C243.296 336.92 242.956 333.263 242.665 329.537C242.359 326.423 242.082 323.121 241.832 319.632C241.561 316.024 241.332 312.652 241.145 309.517C241.097 308.551 240.836 308.109 240.363 308.193C239.87 308.158 239.261 308.509 238.538 309.246C237.815 309.982 236.957 310.987 235.962 312.259C234.968 313.531 233.984 314.862 233.011 316.252C226.879 325.01 223.329 332.52 222.362 338.783C221.492 344.908 222.193 350.267 224.466 354.862C226.738 359.458 230.071 363.5 234.464 366.991C238.975 370.46 243.583 373.79 248.289 376.982C252.994 380.173 257.297 383.496 261.196 386.952C265.095 390.407 267.629 394.408 268.796 398.954ZM331.733 346.732C331.483 347.386 331.027 349.294 330.366 352.456C329.685 355.501 328.624 359.161 327.184 363.436C325.863 367.69 324.17 372.253 322.105 377.126C320.158 381.978 317.675 386.558 314.658 390.868C311.758 395.156 308.331 398.868 304.375 402.002C300.537 405.116 296.057 407.003 290.934 407.663C286.186 408.378 282.37 407.467 279.485 404.929C276.58 402.273 274.318 398.773 272.698 394.428C271.079 390.083 269.919 385.231 269.218 379.871C268.614 374.373 268.18 369.149 267.917 364.199C267.653 359.25 267.435 354.901 267.262 351.155C267.206 347.387 266.887 344.884 266.303 343.647C271.024 342.084 275.347 341.382 279.275 341.543C280.874 341.626 282.445 341.897 283.988 342.357C285.649 342.795 287.126 343.57 288.419 344.682C289.691 345.677 290.72 347.018 291.505 348.708C292.29 350.397 292.735 352.573 292.839 355.235C293.081 362.138 293.473 368.161 294.014 373.306C294.556 378.45 295.383 382.447 296.494 385.297C297.585 388.029 299.021 389.604 300.8 390.021C302.559 390.32 304.787 389.135 307.484 386.466C310.161 383.679 312.682 380.006 315.046 375.446C317.41 370.886 319.419 366.389 321.074 361.954C323.077 356.727 324.802 351.305 326.249 345.689L331.733 346.732ZM278.317 330.928C274.654 331.574 271.293 330.826 268.234 328.684C265.176 326.543 263.324 323.64 262.678 319.977C262.011 316.195 262.759 312.834 264.921 309.894C267.063 306.836 269.965 304.984 273.629 304.338C277.292 303.692 280.653 304.44 283.711 306.581C286.749 308.604 288.601 311.507 289.268 315.288C289.914 318.952 289.166 322.313 287.025 325.371C284.883 328.429 281.981 330.282 278.317 330.928ZM389.574 336.168C388.559 339.393 387.63 342.42 386.789 345.249C386.003 347.703 385.168 350.226 384.285 352.819C383.52 355.391 382.839 357.4 382.241 358.846C381.761 360.271 381.184 361.835 380.509 363.538C379.932 365.102 379.177 366.697 378.246 368.323C377.78 369.137 377.255 369.96 376.671 370.794C376.205 371.608 375.611 372.383 374.887 373.119C374.693 373.397 374.488 373.616 374.272 373.776C374.154 373.797 373.998 373.946 373.803 374.224C373.587 374.384 373.372 374.544 373.156 374.704C372.941 374.864 372.725 375.024 372.51 375.184C372.392 375.204 372.117 375.375 371.686 375.694L371.154 375.788C371.175 375.906 371.126 375.976 371.008 375.997L370.299 376.122L370.122 376.153L369.945 376.184L369.767 376.215L369.236 376.309C368.408 376.455 367.658 376.344 366.983 375.975C366.094 375.767 365.398 375.28 364.898 374.515C364.321 374.008 363.911 373.41 363.668 372.722C363.425 372.033 363.133 371.415 362.792 370.865C362.327 369.607 362 368.446 361.813 367.383C361.604 366.201 361.406 365.078 361.219 364.015C360.941 361.748 360.674 359.541 360.417 357.393C360.16 355.245 359.962 353.087 359.823 350.918C359.754 349.833 359.626 348.759 359.438 347.696C359.369 346.611 359.251 345.596 359.084 344.651C358.917 343.706 358.751 342.76 358.584 341.815C358.417 340.869 358.212 340.053 357.969 339.364C357.767 338.912 357.409 338.61 356.895 338.457C356.499 338.283 356.057 338.544 355.571 339.239L354.695 340.49C354.326 341.164 353.978 341.957 353.652 342.867C353.422 343.639 353.193 344.41 352.963 345.182C352.636 346.093 352.369 346.993 352.16 347.883C351.93 348.654 351.711 349.485 351.503 350.375C351.203 352.133 350.894 353.833 350.574 355.473C350.233 356.996 349.962 358.567 349.76 360.186C349.335 363.307 348.987 366.171 348.716 368.778C348.445 371.385 348.218 373.557 348.037 375.295C347.884 375.809 347.811 376.431 347.818 377.161C347.804 377.773 347.731 378.395 347.599 379.028C347.488 379.778 347.446 380.578 347.473 381.426C347.188 384.644 346.562 387.314 345.595 389.434C344.747 391.533 343.697 393.18 342.446 394.376C341.194 395.571 339.832 396.482 338.358 397.107C337.002 397.712 335.734 398.118 334.552 398.326C330.318 399.195 326.957 398.447 324.469 396.083C321.981 393.719 320.115 390.393 318.871 386.104C317.725 381.675 316.898 376.643 316.392 371.005C316.003 365.346 315.674 359.677 315.403 353.998C315.23 348.18 314.943 342.747 314.54 337.7C314.138 332.654 313.301 328.597 312.029 325.532C317.041 323.551 321.612 322.867 325.741 323.479C327.5 323.779 329.251 324.384 330.996 325.294C332.859 326.184 334.51 327.599 335.948 329.539C337.505 331.458 338.85 333.901 339.983 336.87C341.115 339.838 341.949 343.53 342.483 347.944L342.64 348.83C343.196 347.148 343.968 345.306 344.955 343.304C345.922 341.184 346.979 339.231 348.126 337.444C349.252 335.54 350.49 333.92 351.839 332.586C353.188 331.251 354.63 330.449 356.166 330.178C358.057 329.844 359.552 330.373 360.65 331.763C361.748 333.154 362.613 334.951 363.245 337.155C363.857 339.24 364.274 341.604 364.496 344.245C364.718 346.887 364.898 349.292 365.037 351.461C365.141 352.052 365.197 352.712 365.203 353.442C365.328 354.151 365.384 354.811 365.37 355.423L365.558 356.487C365.53 357.71 365.561 358.923 365.651 360.126C365.838 361.189 365.967 362.263 366.036 363.348C366.203 364.293 366.38 365.298 366.568 366.361C366.734 367.307 366.95 368.183 367.214 368.989C367.617 369.893 367.898 370.452 368.058 370.668L368.267 370.814C368.385 370.793 368.454 370.842 368.475 370.96C368.475 370.96 368.534 370.95 368.652 370.929L368.83 370.897L369.33 370.626L369.685 370.564L369.862 370.533C369.841 370.415 369.949 370.335 370.185 370.293C370.283 370.154 370.39 370.074 370.509 370.053C370.627 370.032 370.794 369.942 371.009 369.782C371.106 369.643 371.214 369.563 371.332 369.542C371.43 369.403 371.576 369.195 371.77 368.917C372.299 368.458 372.758 367.951 373.147 367.395C373.515 366.72 373.943 366.036 374.43 365.341C376.022 362.623 377.336 359.71 378.372 356.603C378.852 355.178 379.496 353.298 380.302 350.962C381.088 348.509 381.884 346.114 382.691 343.778C383.553 341.068 384.503 338.159 385.539 335.051L389.574 336.168ZM479.964 318.036C476.752 320.552 473.384 323.217 469.859 326.032C466.766 328.527 463.262 331.46 459.348 334.831C455.413 338.084 451.234 341.684 446.813 345.632C448.716 352.973 450.693 360.728 452.742 368.896C454.792 377.064 456.643 385.145 458.297 393.14C459.971 401.252 461.336 408.993 462.391 416.361C463.586 423.827 464.152 430.49 464.088 436.35C464.025 442.21 463.221 446.982 461.678 450.666C460.273 454.448 457.857 456.641 454.43 457.245C453.387 457.551 451.121 457.828 447.631 458.078C444.26 458.307 439.96 457.42 434.733 455.418C429.506 453.415 423.553 449.712 416.873 444.31C410.214 439.026 403.184 430.944 395.782 420.064C393.065 416.4 391.901 412.219 392.291 407.52C392.799 402.8 394.42 397.823 397.152 392.589C399.885 387.355 403.445 381.975 407.832 376.449C412.337 370.903 417.228 365.471 422.505 360.154C422.158 358.875 421.8 357.536 421.432 356.139C421.182 354.721 420.942 353.362 420.713 352.062C419.253 354.147 417.389 356.364 415.123 358.714C412.975 361.042 410.559 363.235 407.875 365.292C405.171 367.231 402.237 368.906 399.074 370.317C396.029 371.707 392.918 372.377 389.741 372.328C384.868 372.334 381.157 370.978 378.606 368.26C376.173 365.521 374.79 362.17 374.457 358.207C374.124 354.245 374.795 350.106 376.471 345.789C378.245 341.333 380.862 337.521 384.325 334.352C386.848 332.079 389.504 330.209 392.292 328.743C395.198 327.256 397.989 326.154 400.665 325.439C403.439 324.584 405.969 324.077 408.256 323.917C410.522 323.64 412.326 323.504 413.668 323.511C413.14 321.899 412.681 320.335 412.292 318.819C411.827 317.561 411.42 316.292 411.073 315.013C410.823 313.595 410.517 312.552 410.156 311.885C414.89 309.71 419.37 308.859 423.597 309.332C425.453 309.492 427.302 309.958 429.144 310.73C430.986 311.502 432.772 312.649 434.503 314.172C436.233 315.694 437.811 317.731 439.236 320.283C440.66 322.834 441.894 326.028 442.936 329.866C443.325 331.381 443.655 332.907 443.926 334.443C444.315 335.959 444.714 337.533 445.124 339.167C449.588 335.456 453.749 332.102 457.607 329.107C461.445 325.993 464.872 323.317 467.889 321.079C471.435 318.382 474.668 315.985 477.588 313.886L479.964 318.036ZM393.123 351.078C393.588 354.408 394.839 356.32 396.876 356.813C399.01 357.168 401.363 356.692 403.935 355.386C406.625 354.059 409.271 352.13 411.871 349.6C414.589 347.049 416.765 344.533 418.399 342.052L418.368 341.874C418.041 340.713 417.715 339.552 417.388 338.392C417.103 337.467 416.808 336.483 416.502 335.441C416.294 334.259 416.117 333.254 415.971 332.427C414.671 332.656 412.634 333.198 409.861 334.053C407.184 334.768 404.522 335.908 401.873 337.472C399.203 338.917 396.972 340.773 395.178 343.039C393.363 345.187 392.678 347.866 393.123 351.078ZM433.331 419.475C432.254 411.988 430.855 403.705 429.132 394.627C427.548 385.645 425.867 376.803 424.089 368.099C420.223 372.436 416.723 376.77 413.587 381.1C410.43 385.313 407.913 389.351 406.036 393.216C404.298 397.178 403.296 400.827 403.031 404.164C402.906 407.598 403.802 410.608 405.72 413.194C408.716 417.053 411.924 420.386 415.343 423.195C418.902 426.101 422.047 428.045 424.779 429.025C427.629 429.985 429.906 429.766 431.609 428.369C433.333 427.09 433.907 424.126 433.331 419.475ZM559.115 310.66C557.439 319.119 555.478 326.654 553.231 333.265C552.272 336.115 551.183 338.926 549.967 341.7C548.729 344.355 547.38 346.725 545.92 348.811C544.46 350.896 542.809 352.588 540.966 353.888C539.221 355.049 537.372 355.618 535.419 355.597C532.736 355.583 530.355 354.175 528.277 351.373C526.317 348.551 524.489 345.096 522.794 341.008C521.098 336.92 519.538 332.565 518.114 327.942C516.668 323.201 515.227 318.825 513.788 314.814C512.35 310.802 510.81 307.601 509.17 305.21C507.627 302.679 505.851 301.591 503.842 301.945C501.833 302.299 500.658 304.273 500.317 307.867C499.955 311.343 499.809 315.695 499.878 320.922C500.064 326.129 500.265 331.759 500.48 337.814C500.695 343.869 500.305 349.604 499.31 355.019C498.412 360.295 496.719 364.858 494.23 368.709C491.741 372.559 487.886 374.884 482.665 375.683C479.141 376.426 476.061 375.202 473.427 372.011C470.793 368.82 468.423 364.364 466.318 358.643C464.331 352.901 462.601 346.199 461.128 338.538C459.773 330.857 458.544 322.849 457.44 314.514C456.336 306.179 455.36 297.882 454.513 289.624C453.764 281.227 453.011 273.5 452.254 266.444C451.497 259.388 450.73 253.309 449.952 248.207C449.293 243.083 448.549 239.559 447.722 237.633C453.11 235.709 458.035 234.962 462.498 235.394C464.354 235.554 466.203 236.02 468.045 236.792C469.984 237.424 471.701 238.523 473.195 240.087C474.787 241.513 476.108 243.473 477.157 245.969C478.304 248.325 479.082 251.356 479.491 255.061C479.824 259.024 480.283 263.695 480.866 269.076C481.428 274.338 482.053 279.955 482.74 285.926C483.407 291.779 484.105 297.81 484.834 304.018C485.66 310.086 486.514 315.967 487.396 321.661C487.536 317.615 487.863 313.597 488.378 309.607C488.872 305.499 489.627 301.832 490.642 298.607C491.776 295.361 493.191 292.674 494.887 290.547C496.681 288.281 498.878 286.919 501.478 286.461C504.905 285.856 507.835 286.924 510.267 289.663C512.797 292.263 515 295.774 516.877 300.195C518.871 304.596 520.584 309.472 522.015 314.825C523.565 320.157 524.992 325.145 526.299 329.789C527.723 334.412 529.151 338.364 530.583 341.645C531.993 344.808 533.627 346.47 535.483 346.63C536.609 346.797 537.759 346.411 538.934 345.473C540.206 344.396 541.427 343.023 542.595 341.355C543.763 339.687 544.889 337.782 545.974 335.641C547.156 333.361 548.209 331.043 549.134 328.687C551.352 323.3 553.494 317.134 555.56 310.19L559.115 310.66Z" fill="white"/>
</svg>
